<?xml version="1.0" encoding="UTF-8" standalone="no"?>
<!-- Created with Inkscape (http://www.inkscape.org/) -->

<svg
   xmlns:dc="http://purl.org/dc/elements/1.1/"
   xmlns:cc="http://creativecommons.org/ns#"
   xmlns:rdf="http://www.w3.org/1999/02/22-rdf-syntax-ns#"
   xmlns:svg="http://www.w3.org/2000/svg"
   xmlns="http://www.w3.org/2000/svg"
   xmlns:sodipodi="http://sodipodi.sourceforge.net/DTD/sodipodi-0.dtd"
   xmlns:inkscape="http://www.inkscape.org/namespaces/inkscape"
   width="152.40192mm"
   height="88.533081mm"
   viewBox="0 0 152.40192 88.533081"
   version="1.1"
   id="svg8"
   inkscape:version="0.92.3 (2405546, 2018-03-11)"
   sodipodi:docname="House_09.svg">
  <defs
     id="defs2" />
  <sodipodi:namedview
     id="base"
     pagecolor="#ffffff"
     bordercolor="#666666"
     borderopacity="1.0"
     inkscape:pageopacity="0.0"
     inkscape:pageshadow="2"
     inkscape:zoom="0.7"
     inkscape:cx="-68.070785"
     inkscape:cy="-170.41661"
     inkscape:document-units="mm"
     inkscape:current-layer="g3793"
     showgrid="false"
     inkscape:window-width="1920"
     inkscape:window-height="1017"
     inkscape:window-x="-8"
     inkscape:window-y="-8"
     inkscape:window-maximized="1" />
  <metadata
     id="metadata5">
    <rdf:RDF>
      <cc:Work
         rdf:about="">
        <dc:format>image/svg+xml</dc:format>
        <dc:type
           rdf:resource="http://purl.org/dc/dcmitype/StillImage" />
        <dc:title />
      </cc:Work>
    </rdf:RDF>
  </metadata>
  <g
     inkscape:label="Layer 1"
     inkscape:groupmode="layer"
     id="layer1"
     transform="translate(-39.212199,-36.034681)">
    <g
       id="g3738"
       transform="translate(96.194941,-28.159226)">
      <g
         id="g3793"
         transform="translate(19.276786,25.135417)">
        <path
           style="fill:#958b6d;stroke-width:0.08466666"
           d="m -76.237067,124.09892 c 0.01923,-3.03817 0.03863,-3.4925 0.149106,-3.4925 0.09087,0 0.128457,0.0964 0.13212,0.33867 0.0042,0.27927 0.03687,0.34331 0.186132,0.36515 0.09956,0.0146 0.26234,-0.017 0.361738,-0.0702 0.167231,-0.0895 0.170559,-0.10795 0.04457,-0.24717 -0.113577,-0.12551 -0.117146,-0.16624 -0.02152,-0.24561 0.218557,-0.18138 1.249772,-0.5218 1.580688,-0.5218 0.18289,0 0.362995,-0.0476 0.400234,-0.10583 0.03724,-0.0582 0.198083,-0.19754 0.357432,-0.30963 l 0.289725,-0.2038 0.358196,0.19002 c 0.271486,0.14403 0.396927,0.1693 0.518187,0.1044 0.08871,-0.0475 0.391653,-0.0646 0.679971,-0.0385 l 0.51998,0.0471 0.59808,-0.62105 c 0.592446,-0.61519 0.715439,-0.6609 0.781616,-0.29045 0.04498,0.25176 0.311495,0.24596 0.832853,-0.0181 0.377808,-0.19137 0.460774,-0.2712 0.439734,-0.42309 -0.01968,-0.14207 0.07731,-0.26139 0.402167,-0.49478 0.235454,-0.16915 0.428099,-0.35647 0.428099,-0.41625 0,-0.0598 0.05778,-0.15664 0.128398,-0.21525 0.07062,-0.0586 0.118243,-0.20614 0.105833,-0.32786 -0.02042,-0.20028 0.0052,-0.22131 0.269878,-0.22131 0.266837,0 0.298935,-0.0272 0.366586,-0.31049 0.0968,-0.40536 0.296277,-0.58287 0.547471,-0.48719 0.133369,0.0508 0.1905,0.14193 0.1905,0.30389 0,0.17992 0.02258,0.20875 0.1016,0.12972 0.05588,-0.0559 0.165042,-0.1016 0.242582,-0.1016 0.07754,0 0.245357,-0.0821 0.372927,-0.18244 0.174369,-0.13716 0.334831,-0.17881 0.646418,-0.16778 0.364131,0.0129 0.414473,-0.006 0.414473,-0.15622 0,-0.18201 -0.0843,-0.21912 -0.2159,-0.0951 -0.113399,0.1069 -0.461433,-0.0428 -0.461433,-0.19848 0,-0.14586 0.289011,-0.23923 0.646392,-0.20881 0.133434,0.0114 0.359505,-0.0294 0.502379,-0.0907 0.470697,-0.20175 0.74223,-0.98133 0.375229,-1.07731 -0.302002,-0.079 -0.198125,-0.27853 0.144986,-0.27853 0.23698,0 0.357473,0.0541 0.489704,0.21995 0.125909,0.15791 0.234284,0.20994 0.38418,0.18445 l 0.208796,-0.0355 -0.224608,-0.0946 c -0.27227,-0.11463 -0.342862,-0.21583 -0.274608,-0.3937 0.05827,-0.15186 0.340749,-0.1746 0.660174,-0.0532 0.240771,0.0915 0.39001,-0.012 0.598689,-0.41559 0.06638,-0.12838 0.217896,-0.2971 0.336693,-0.37493 0.118796,-0.0778 0.215994,-0.18141 0.215994,-0.23016 0,-0.15854 0.485553,-0.79947 1.041989,-1.37541 l 0.544212,-0.56329 0.140469,-3.11188 c 0.159119,-3.52508 0.176787,-3.69806 0.411592,-4.02979 0.09365,-0.13231 0.189214,-0.40853 0.212353,-0.61383 0.03555,-0.31544 0.01905,-0.37327 -0.106521,-0.37327 -0.125085,0 -0.137886,-0.0435 -0.08091,-0.27516 0.03723,-0.15134 0.05857,-0.42757 0.04743,-0.61384 -0.07547,-1.26173 -0.08018,-5.04193 -0.0076,-6.096 0.07644,-1.11007 0.240358,-4.58317 0.379615,-8.04333 0.06492,-1.61306 0.186084,-6.355479 0.176917,-6.924559 -0.005,-0.30946 -0.04946,-0.51559 -0.120747,-0.55967 -0.06207,-0.0384 -0.38592,-0.0929 -0.719667,-0.12125 -0.878779,-0.0745 -1.920754,-0.30343 -2.225471,-0.48887 -0.145194,-0.0883 -0.346486,-0.16065 -0.447313,-0.16065 -0.260153,0 -1.024358,-0.40367 -1.024358,-0.54109 0,-0.13378 0.185852,-0.47922 1.189341,-2.21057 0.404849,-0.6985 1.327689,-2.2987 2.050755,-3.556 0.723067,-1.2573 1.657477,-2.87655 2.076466,-3.59834 1.365072,-2.35157 1.926798,-3.3243 2.640206,-4.572 1.090451,-1.90711 1.356831,-2.36802 1.737081,-3.00566 0.194386,-0.32597 0.631423,-1.06892 0.971192,-1.651 0.33977,-0.58209 0.834838,-1.42029 1.100152,-1.86267 0.265315,-0.44238 0.750708,-1.26153 1.07865,-1.82033 0.327943,-0.5588 1.034148,-1.75895 1.569345,-2.667 1.707944,-2.89781 4.147169,-7.0472 4.554094,-7.747 0.21662,-0.37254 1.130915,-1.93464 2.031765,-3.47134 0.90085,-1.5367 1.727407,-2.95226 1.836791,-3.1457 0.304391,-0.53828 0.370975,-0.57203 0.890197,-0.45113 0.500895,0.11662 9.748301,3.21206 17.294962,5.78924 1.583267,0.54068 4.155016,1.38588 5.715,1.87822 1.559983,0.49233 3.712633,1.17376 4.783666,1.51427 2.936047,0.93346 6.147814,1.94528 7.239,2.28054 0.535517,0.16454 4.0026164,1.24976 7.7046664,2.41161 7.3092386,2.29394 9.7587546,3.05161 13.7159986,4.24258 1.420283,0.42744 3.115733,0.94061 3.767666,1.14038 0.651934,0.19976 1.219581,0.3318 1.26144,0.29342 0.08685,-0.0796 0.193294,-2.07819 0.149429,-2.80565 -0.02331,-0.38655 -0.06161,-0.49385 -0.190941,-0.5349 -0.236262,-0.075 -0.35692,-0.34111 -0.247421,-0.54571 0.09185,-0.17162 0.759545,-0.40451 2.189844,-0.76384 0.678671,-0.17049 0.724484,-0.17191 1.143,-0.0352 0.612453,0.20001 1.500471,0.60691 1.680946,0.77024 0.209178,0.1893 0.190373,0.40723 -0.05496,0.63708 l -0.206993,0.19393 -0.04094,2.26941 -0.04094,2.26942 0.18443,0.0722 c 0.101439,0.0397 0.447167,0.13867 0.76829,0.21983 0.437058,0.11047 0.724434,0.25442 1.143,0.57253 0.307527,0.23372 1.111589,0.84263 1.786806,1.35313 1.198397,0.90605 6.299436,4.87459 13.217219,10.28281 1.89103,1.47837 4.61518,3.60219 6.053666,4.71959 2.059796,1.60002 2.925733,2.33602 4.075946,3.4643 0.803275,0.78796 1.4605,1.48088 1.4605,1.53982 0,0.0589 -0.0762,0.13135 -0.169333,0.1609 -0.09313,0.0296 -0.169333,0.12272 -0.169333,0.20701 0,0.3415 -0.213394,0.37771 -0.910446,0.15447 -0.799592,-0.25608 -2.291588,-0.61948 -2.332592,-0.56814 -0.02753,0.0345 0.02546,2.806299 0.146956,7.687499 0.02707,1.08763 0.06889,2.00934 0.09293,2.04823 0.02404,0.0389 0.03916,2.86377 0.0336,6.2775 -0.0056,3.41372 -0.0038,6.52068 0.0038,6.90436 0.01335,0.66914 9.31e-4,0.71857 -0.303607,1.21203 l -0.317533,0.51444 0.09693,2.20523 0.09694,2.20523 -0.589491,1.25202 c -0.640284,1.35993 -0.653178,1.42891 -0.464643,2.48682 0.08865,0.49744 0.174321,0.72518 0.336457,0.89441 0.119634,0.12487 0.284514,0.43416 0.366395,0.6873 l 0.14887,0.46026 0.443052,-0.0272 c 0.283379,-0.0174 0.443052,0.006 0.443052,0.0663 0,0.14446 0.562864,0.67343 0.821021,0.77158 0.12689,0.0482 0.320734,0.0651 0.430776,0.0375 0.205308,-0.0515 1.055048,0.29239 1.166003,0.47192 0.03343,0.0541 0.169554,0.071 0.329913,0.0409 0.18575,-0.0348 0.40259,0.006 0.678535,0.12818 0.223046,0.0987 0.619718,0.21555 0.881482,0.25974 0.261764,0.0442 0.685486,0.11517 0.941603,0.15774 0.256117,0.0426 0.61026,0.10208 0.786985,0.13225 0.397273,0.0678 0.368046,0.22851 -0.05404,0.29712 -0.472245,0.0768 -0.447946,0.131 0.0905,0.20198 0.624069,0.0823 0.8049,0.08 1.39368,-0.0178 0.402032,-0.0667 0.534713,-0.0547 0.804334,0.0729 0.17758,0.084 0.369519,0.15409 0.426533,0.15567 0.05701,0.002 0.162772,0.11718 0.23501,0.25688 0.146371,0.28305 0.205088,0.29795 0.604757,0.15343 0.239505,-0.0866 0.301769,-0.0791 0.448589,0.0537 0.125121,0.11323 0.249445,0.14148 0.467191,0.10614 0.312962,-0.0508 0.468816,0.0596 0.309355,0.21902 -0.05183,0.0518 -0.09423,0.1247 -0.09423,0.16195 0,0.10076 0.414401,0.0819 0.733095,-0.0333 0.249224,-0.0901 0.300778,-0.081 0.476724,0.0843 0.141833,0.13325 0.350503,0.20069 0.74256,0.23999 0.335179,0.0336 0.678646,0.13161 0.891396,0.25438 0.190356,0.10985 0.453805,0.19973 0.585436,0.19973 0.13164,0 0.509296,0.14573 0.839233,0.32384 0.940088,0.50748 1.355632,0.6362 1.879388,0.58214 0.39707,-0.041 0.471179,-0.0242 0.580263,0.13156 0.06878,0.0982 0.342579,0.26704 0.608449,0.37521 l 0.483404,0.19667 0.180653,-0.16971 c 0.226797,-0.21307 0.341817,-0.21314 0.612293,0 0.118406,0.0931 0.321716,0.16934 0.451806,0.16934 0.230438,0 0.502633,0.18668 0.502633,0.34471 0,0.0432 0.05715,0.0786 0.127,0.0786 0.06985,0 0.127,-0.0381 0.127,-0.0847 0,-0.12932 0.623248,-0.10076 0.80932,0.0371 0.162543,0.12042 0.162543,0.12309 0,0.24327 -0.159428,0.11811 -0.158242,0.12342 0.04233,0.19016 0.113479,0.0377 0.4948,0.0712 0.847378,0.0742 0.950789,0.008 0.925279,-0.0443 0.925279,1.90452 v 1.61471 H -0.0585932 -76.259528 l 0.02211,-3.4925 z m 4.731426,-4.54043 c -0.203665,-0.13289 -0.01372,-0.2644 0.381885,-0.2644 0.318263,0 0.377513,0.0248 0.354132,0.14817 -0.03156,0.16651 -0.536694,0.24628 -0.736017,0.11623 z m -0.687653,-0.0951 c 0,-0.0466 0.0549,-0.0847 0.122003,-0.0847 0.0671,0 0.14555,0.0381 0.17433,0.0847 0.02878,0.0466 -0.02612,0.0847 -0.122003,0.0847 -0.09588,0 -0.17433,-0.0381 -0.17433,-0.0847 z m 9.905999,-6.18566 c 0,-0.0493 0.0381,-0.0661 0.08467,-0.0373 0.04657,0.0288 0.08467,0.0691 0.08467,0.0897 0,0.0205 -0.0381,0.0373 -0.08467,0.0373 -0.04657,0 -0.08467,-0.0403 -0.08467,-0.0897 z"
           id="path3811"
           inkscape:connector-curvature="0" />
      </g>
    </g>
  </g>
</svg>
